<svg width="21" height="20" viewBox="0 0 21 20" fill="none" xmlns="http://www.w3.org/2000/svg">
<path d="M13.01 14.95L8.04 11.87V5H10.04V10.76L14.07 13.25L13.01 14.95ZM20.04 10C20.04 15.51 15.55 20 10.04 20C4.53 20 0.04 15.51 0.04 10H1.04C1.04 14.96 5.08 19 10.04 19C15 19 19.04 14.96 19.04 10C19.04 5.04 15 1 10.04 1C6.85 1 3.96 2.64 2.32 5.38C2.21 5.56 2.1 5.75 2.01 5.94C2 5.96 1.99 5.98 1.98 6H6.04V7H0V1H1V5.74C1.04 5.65 1.07 5.57 1.11 5.49C1.22 5.27 1.34 5.07 1.46 4.86C3.26 1.86 6.55 0 10.04 0C15.55 0 20.04 4.49 20.04 10Z" fill="white"/>
</svg>
