<svg width="20" height="15" viewBox="0 0 20 15" fill="none" xmlns="http://www.w3.org/2000/svg">
<path d="M12 7.08C12 8.18 11.1 9.08 10 9.08C8.9 9.08 8 8.18 8 7.08C8 5.98 8.9 5.08 10 5.08C11.1 5.08 12 5.98 12 7.08ZM6.48 3.53L5.77 2.83C4.68 3.91 4 5.42 4 7.08C4 8.74 4.68 10.25 5.77 11.33L6.48 10.62C5.57 9.72 5 8.47 5 7.08C5 5.69 5.57 4.44 6.48 3.53ZM14.23 2.83L13.52 3.54C14.43 4.44 15 5.69 15 7.08C15 8.47 14.43 9.72 13.52 10.63L14.23 11.34C15.32 10.25 16 8.74 16 7.08C16 5.42 15.32 3.91 14.23 2.83ZM3.65 0.71L2.95 0C1.13 1.81 0 4.32 0 7.08C0 9.84 1.13 12.35 2.95 14.16L3.66 13.45C2.02 11.82 1 9.57 1 7.08C1 4.59 2.02 2.34 3.65 0.71ZM17.05 0L16.34 0.71C17.98 2.34 19 4.59 19 7.08C19 9.57 17.98 11.82 16.35 13.45L17.06 14.16C18.87 12.35 20 9.84 20 7.08C20 4.32 18.87 1.81 17.05 0Z" fill="white"/>
</svg>
