<svg width="20" height="14" viewBox="0 0 20 14" fill="none" xmlns="http://www.w3.org/2000/svg">
<path d="M8.00052 4.35L13.0005 7L8.00052 9.65V4.35ZM10.0005 1C7.47475 0.950847 4.94863 1.07782 2.44052 1.38C2.18774 1.4509 1.95745 1.58564 1.77181 1.77129C1.58617 1.95693 1.45142 2.18722 1.38052 2.44C1.11263 3.94492 0.985415 5.4715 1.00052 7C0.985415 8.5285 1.11263 10.0551 1.38052 11.56C1.45142 11.8128 1.58617 12.0431 1.77181 12.2287C1.95745 12.4144 2.18774 12.5491 2.44052 12.62C4.94863 12.9222 7.47475 13.0492 10.0005 13C12.5263 13.0492 15.0524 12.9222 17.5605 12.62C17.8133 12.5491 18.0436 12.4144 18.2292 12.2287C18.4149 12.0431 18.5496 11.8128 18.6205 11.56C18.8884 10.0551 19.0156 8.5285 19.0005 7C19.0156 5.4715 18.8884 3.94492 18.6205 2.44C18.5496 2.18722 18.4149 1.95693 18.2292 1.77129C18.0436 1.58564 17.8133 1.4509 17.5605 1.38C15.0524 1.07782 12.5263 0.950847 10.0005 1ZM10.0005 0C10.0005 0 16.2505 8.9407e-08 17.8105 0.42C18.2346 0.534356 18.6213 0.758008 18.9319 1.06861C19.2425 1.37921 19.4662 1.76589 19.5805 2.19C19.8702 3.77673 20.0108 5.38708 20.0005 7C20.0108 8.61292 19.8702 10.2233 19.5805 11.81C19.4662 12.2341 19.2425 12.6208 18.9319 12.9314C18.6213 13.242 18.2346 13.4656 17.8105 13.58C16.2505 14 10.0005 14 10.0005 14C10.0005 14 3.75052 14 2.19052 13.58C1.76641 13.4656 1.37974 13.242 1.06913 12.9314C0.758531 12.6208 0.534879 12.2341 0.420523 11.81C0.130881 10.2233 -0.00973126 8.61292 0.00052278 7C-0.00973126 5.38708 0.130881 3.77673 0.420523 2.19C0.534879 1.76589 0.758531 1.37921 1.06913 1.06861C1.37974 0.758008 1.76641 0.534356 2.19052 0.42C3.75052 8.9407e-08 10.0005 0 10.0005 0Z" fill="white"/>
</svg>
